<?xml version="1.0" standalone="no"?>
<!DOCTYPE svg PUBLIC "-//W3C//DTD SVG 20010904//EN"
 "http://www.w3.org/TR/2001/REC-SVG-20010904/DTD/svg10.dtd">
<svg version="1.0" xmlns="http://www.w3.org/2000/svg"
 width="475.000000pt" height="106.000000pt" viewBox="0 0 475.000000 106.000000"
 preserveAspectRatio="xMidYMid meet">

<g transform="translate(0.000000,106.000000) scale(0.100000,-0.100000)"
fill="#000000" stroke="none">
<path d="M97 543 c-43 -285 -77 -524 -77 -530 0 -10 32 -13 124 -13 110 0 125
2 129 18 3 9 15 87 28 173 l22 156 126 6 c69 3 147 12 174 20 167 53 263 210
255 420 -3 84 -6 99 -33 143 -37 58 -108 99 -200 114 -33 6 -152 10 -266 10
l-205 0 -77 -517z m490 263 c44 -51 24 -164 -38 -209 -28 -20 -189 -38 -189
-21 0 20 31 239 36 253 3 10 22 13 86 9 73 -4 84 -8 105 -32z"/>
<path d="M1352 1040 c-112 -29 -187 -74 -277 -165 -136 -135 -190 -274 -183
-464 3 -90 8 -115 31 -163 42 -86 107 -152 190 -193 125 -61 227 -67 383 -20
l51 15 7 63 c4 34 14 100 22 146 8 46 14 85 14 88 0 2 -10 -6 -22 -17 -13 -12
-45 -34 -73 -48 -41 -22 -63 -27 -126 -27 -67 1 -82 4 -125 30 -68 43 -99 106
-98 200 3 189 158 340 331 321 63 -7 86 -17 130 -59 38 -36 35 -42 58 113 9
63 18 123 19 132 4 19 -21 31 -114 53 -84 19 -129 18 -218 -5z"/>
<path d="M3036 1049 c-114 -31 -130 -204 -21 -225 72 -13 145 56 145 137 0 64
-59 106 -124 88z m64 -49 c30 -30 26 -76 -9 -111 -34 -34 -63 -37 -91 -9 -30
30 -26 76 9 111 34 34 63 37 91 9z"/>
<path d="M3355 1028 c-30 -179 -32 -193 -18 -196 22 -6 26 3 38 81 12 82 2 86
79 -36 20 -32 42 -57 49 -54 6 2 17 39 23 83 7 43 15 94 18 112 4 26 2 32 -14
32 -15 0 -21 -13 -31 -77 -14 -87 -9 -88 -80 25 -21 34 -43 62 -48 62 -6 0
-13 -15 -16 -32z"/>
<path d="M4226 956 c-20 -130 -20 -126 3 -126 16 0 20 10 25 63 4 34 10 68 14
74 5 8 26 -18 55 -67 27 -44 54 -80 61 -80 9 0 17 29 25 87 7 48 15 100 18
115 5 23 2 28 -15 28 -17 0 -21 -9 -27 -57 -13 -103 -16 -104 -70 -14 -27 45
-54 81 -61 81 -7 0 -18 -40 -28 -104z"/>
<path d="M3736 1028 c-10 -49 -26 -156 -26 -176 0 -20 5 -22 50 -22 38 0 50 4
50 15 0 10 -10 15 -30 15 -16 0 -30 3 -30 8 0 4 6 46 14 95 12 82 12 87 -5 87
-11 0 -21 -9 -23 -22z"/>
<path d="M4001 973 c-6 -43 -14 -93 -17 -110 -4 -28 -2 -33 14 -33 16 0 21 13
31 88 7 48 15 97 18 110 4 17 1 22 -15 22 -16 0 -21 -11 -31 -77z"/>
<path d="M4607 950 c-10 -54 -17 -104 -17 -110 0 -17 107 -13 114 5 4 12 -3
15 -35 15 -33 0 -40 3 -35 16 3 9 6 24 6 34 0 14 9 20 37 22 49 4 57 28 9 28
-33 0 -36 2 -36 30 0 28 2 30 40 30 29 0 40 4 40 15 0 11 -13 15 -53 15 l-54
0 -16 -100z"/>
<path d="M1765 978 c-2 -13 -32 -207 -65 -433 -33 -226 -64 -429 -69 -452 l-8
-43 98 0 c73 0 99 3 99 13 0 6 11 86 25 175 26 177 43 220 95 247 39 20 73 19
101 -4 22 -18 24 -27 23 -98 -1 -67 -8 -117 -39 -305 l-4 -28 94 0 c106 0 96
-8 110 90 3 25 15 106 26 180 22 148 19 219 -10 264 -33 49 -69 66 -144 66
-76 0 -120 -16 -167 -60 l-30 -28 0 24 c0 23 45 332 56 387 l6 27 -96 0 c-91
0 -96 -1 -101 -22z"/>
<path d="M2573 631 c-149 -55 -231 -163 -241 -317 -4 -72 -2 -88 20 -136 31
-67 76 -103 159 -129 74 -23 126 -24 204 -4 167 44 271 163 283 325 8 118 -39
205 -138 256 -53 27 -218 31 -287 5z m188 -179 c89 -79 11 -245 -115 -245 -78
0 -124 54 -113 135 15 114 151 179 228 110z"/>
<path d="M3390 629 c-19 -12 -48 -33 -64 -48 l-29 -26 7 43 6 42 -94 0 -94 0
-6 -27 c-3 -16 -10 -62 -15 -103 -6 -41 -20 -138 -32 -215 -11 -77 -24 -164
-28 -193 l-8 -52 97 0 96 0 12 93 c35 263 48 309 94 341 32 23 81 20 104 -5
23 -26 24 -108 1 -249 -9 -52 -19 -114 -22 -137 l-7 -43 95 0 95 0 6 27 c3 16
10 62 16 103 30 221 40 259 77 293 26 23 76 32 101 18 45 -24 45 -75 2 -351
-5 -36 -10 -71 -10 -77 0 -10 25 -13 94 -13 l95 0 6 47 c4 27 13 88 20 138 32
203 36 248 30 288 -16 95 -55 127 -155 127 -73 0 -114 -16 -169 -65 -23 -21
-43 -36 -44 -34 -2 2 -11 17 -21 32 -30 48 -72 67 -151 67 -53 0 -78 -5 -105
-21z"/>
<path d="M4329 636 c-78 -27 -157 -95 -193 -163 -21 -42 -46 -145 -46 -192 0
-65 36 -146 81 -185 138 -117 407 -64 490 96 l19 38 -95 0 c-57 0 -95 -4 -95
-10 0 -6 -20 -20 -44 -31 -82 -41 -166 0 -166 81 l0 40 210 0 209 0 7 36 c8
44 -2 135 -20 178 -36 86 -111 126 -236 125 -47 0 -101 -6 -121 -13z m156
-120 c36 -15 55 -42 55 -75 0 -20 -5 -21 -115 -21 -128 0 -135 5 -89 59 23 27
64 47 102 50 7 1 28 -5 47 -13z"/>
</g>
</svg>
